<svg width="122" height="15" viewBox="0 0 122 15" fill="none" xmlns="http://www.w3.org/2000/svg">
<path d="M10.6776 10.9615C10.6776 11.5137 10.5395 11.9893 10.2634 12.3881C10.0946 12.6335 9.82619 12.9403 9.45803 13.3085C9.10521 13.6766 8.82143 13.9298 8.60667 14.0678C8.11579 14.3593 7.60957 14.505 7.08802 14.505H3.95868C3.43712 14.505 2.9309 14.3593 2.44003 14.0678C2.20993 13.9298 1.9108 13.6766 1.54264 13.3085C1.18983 12.925 0.929047 12.6182 0.760308 12.3881C0.49953 12.0046 0.369141 11.5291 0.369141 10.9615V6.91175C0.369141 6.32884 0.49953 5.84563 0.760308 5.46213C0.929047 5.23203 1.18983 4.93291 1.54264 4.56475C1.9108 4.19659 2.20993 3.94348 2.44003 3.80542C2.9309 3.51396 3.43712 3.36824 3.95868 3.36824H7.08802C7.60957 3.36824 8.11579 3.51396 8.60667 3.80542C9.0055 4.05086 9.55774 4.6031 10.2634 5.46213C10.5395 5.86097 10.6776 6.34418 10.6776 6.91175V10.9615ZM7.84734 10.9385V6.91175C7.64792 6.5436 7.37948 6.25981 7.042 6.06039H4.02771C3.69023 6.30583 3.40644 6.59729 3.17634 6.93476V10.9385C3.48314 11.3527 3.75926 11.6364 4.0047 11.7898H7.01899C7.31045 11.6058 7.58656 11.322 7.84734 10.9385Z" fill="url(#paint0_linear_502_388)"/>
<path d="M22.7435 11.1686C22.7435 11.7515 22.5978 12.2577 22.3063 12.6872C22.199 12.856 21.9995 13.0861 21.7081 13.3775C21.432 13.6536 21.2095 13.8531 21.0408 13.9758C20.5346 14.3286 19.9747 14.505 19.3611 14.505H16.7149C16.086 14.505 15.5031 14.3133 14.9662 13.9298C14.4293 13.5309 13.9998 13.0784 13.6776 12.5722C13.4475 12.2194 13.2558 11.8665 13.1024 11.5137L15.8176 10.7774C16.063 11.3296 16.3851 11.6748 16.784 11.8129H19.3381C19.3841 11.8129 19.4685 11.7515 19.5912 11.6288C19.7292 11.5061 19.8443 11.3757 19.9363 11.2376V9.25876C19.921 9.25876 19.898 9.2741 19.8673 9.30478C19.8366 9.32012 19.8136 9.33546 19.7983 9.3508C19.3994 9.5809 19.1003 9.69595 18.9009 9.69595H16.4388C15.7945 9.69595 15.2346 9.52721 14.7591 9.18973C14.5904 9.06701 14.3603 8.86759 14.0688 8.59147C13.7774 8.30001 13.5856 8.07759 13.4936 7.92419C13.2021 7.49467 13.0564 6.99612 13.0564 6.42855V3.80542C13.0564 3.25319 13.2021 2.75464 13.4936 2.30978C13.7237 1.95697 14.1455 1.53512 14.7591 1.04424C15.2807 0.676083 15.8406 0.492004 16.4388 0.492004H19.3611C19.9593 0.492004 20.5192 0.676083 21.0408 1.04424C21.2249 1.1823 21.455 1.38939 21.7311 1.66551C22.0225 1.94162 22.2143 2.15638 22.3063 2.30978C22.5978 2.70862 22.7435 3.1995 22.7435 3.78241V11.1686ZM19.9363 6.33651V3.78241C19.8596 3.64435 19.7522 3.51397 19.6142 3.39125C19.4761 3.25319 19.3841 3.18416 19.3381 3.18416H16.4388C16.3928 3.18416 16.3008 3.24552 16.1627 3.36824C16.04 3.47562 15.9403 3.59833 15.8636 3.73639V6.40554C15.9403 6.5436 16.0477 6.68165 16.1857 6.81971C16.3391 6.95777 16.4388 7.0268 16.4848 7.0268H19.0619C19.1847 7.0268 19.2767 7.01146 19.3381 6.98078C19.6142 6.75068 19.8136 6.53593 19.9363 6.33651Z" fill="url(#paint1_linear_502_388)"/>
<path d="M40.9411 14.39H38.1109L33.647 6.26748V14.39H30.8398V0.584044H33.716L38.1339 8.82157V0.584044H40.9411V14.39Z" fill="url(#paint2_linear_502_388)"/>
<path d="M52.8712 14.39H43.8053V0.584044H52.8712V3.2762H46.6125V6.10641H52.6641V8.79856H46.6125V11.6978H52.8712V14.39Z" fill="url(#paint3_linear_502_388)"/>
<path d="M65.2648 3.2762H61.5602V14.39H58.73V3.2762H55.0024V0.584044H65.2648V3.2762Z" fill="url(#paint4_linear_502_388)"/>
<path d="M82.8384 0.584044L79.6401 14.39H76.6258L74.6239 6.3135C74.4092 7.20321 74.0793 8.55312 73.6345 10.3632C73.1896 12.158 72.8598 13.5002 72.6451 14.39H69.6308L66.4784 0.584044H69.3777L71.1954 9.09769C71.4255 8.10059 71.763 6.65097 72.2079 4.74883C72.6681 2.83134 72.9979 1.44308 73.1973 0.584044H76.0505L78.0524 9.09769C78.2365 8.26933 78.5279 6.89641 78.9268 4.97893C79.3256 3.0461 79.6324 1.58114 79.8471 0.584044H82.8384Z" fill="url(#paint5_linear_502_388)"/>
<path d="M95.13 10.9615C95.13 11.5291 94.9996 12.0046 94.7388 12.3881C94.0946 13.2165 93.5347 13.7764 93.0591 14.0678C92.5682 14.3593 92.062 14.505 91.5405 14.505H88.043C87.5214 14.505 87.0152 14.3593 86.5243 14.0678C86.2942 13.9298 85.9951 13.6766 85.6269 13.3085C85.2741 12.925 85.0133 12.6182 84.8446 12.3881C84.5838 12.0046 84.4534 11.5291 84.4534 10.9615V4.03552C84.4534 3.45261 84.5838 2.9694 84.8446 2.5859C85.0133 2.3558 85.2741 2.05667 85.6269 1.68852C85.9951 1.32036 86.2942 1.06725 86.5243 0.929191C87.0152 0.637733 87.5214 0.492004 88.043 0.492004H91.5405C92.062 0.492004 92.5682 0.637733 93.0591 0.929191C93.4886 1.17463 94.0485 1.72687 94.7388 2.5859C94.9996 2.9694 95.13 3.45261 95.13 4.03552V10.9615ZM92.3228 10.9615V4.03552C92.108 3.66736 91.8319 3.38358 91.4944 3.18416H88.112C87.7745 3.4296 87.4907 3.72105 87.2606 4.05853V10.9615C87.5674 11.3757 87.8436 11.6595 88.089 11.8129H91.4714C91.7629 11.5981 92.0467 11.3143 92.3228 10.9615Z" fill="url(#paint6_linear_502_388)"/>
<path d="M107.994 5.8533C107.994 6.42088 107.848 6.91942 107.557 7.34894C107.465 7.50234 107.273 7.7171 106.981 7.99322C106.705 8.26933 106.483 8.46875 106.314 8.59147C106.191 8.68351 106.007 8.79089 105.762 8.91361L108.753 14.39H105.624L102.886 9.1207H100.677V14.39H97.8694V0.584044H104.588C105.263 0.584044 105.839 0.760453 106.314 1.11327C106.774 1.46609 107.188 1.88794 107.557 2.37881C107.848 2.77765 107.994 3.28387 107.994 3.89746V5.8533ZM105.187 5.87631V3.82843C105.033 3.58299 104.834 3.39892 104.588 3.2762H100.677V6.42855H104.588C104.634 6.42855 104.726 6.36719 104.864 6.24447C105.018 6.10641 105.125 5.98369 105.187 5.87631Z" fill="url(#paint7_linear_502_388)"/>
<path d="M121.441 14.39H118.036L113.917 8.68351H113.687V14.39H110.88V0.584044H113.687V6.19845H113.917C113.948 6.19845 114.308 5.73058 114.999 4.79485C115.689 3.85911 116.372 2.92338 117.047 1.98764L118.059 0.584044H121.372L116.287 7.39496L121.441 14.39Z" fill="url(#paint8_linear_502_388)"/>
<defs>
<linearGradient id="paint0_linear_502_388" x1="150.9" y1="-7.84415" x2="130.603" y2="59.0577" gradientUnits="userSpaceOnUse">
<stop stop-color="#5BFDC3"/>
<stop offset="1" stop-color="#3DEFDB"/>
</linearGradient>
<linearGradient id="paint1_linear_502_388" x1="150.9" y1="-7.84415" x2="130.603" y2="59.0577" gradientUnits="userSpaceOnUse">
<stop stop-color="#5BFDC3"/>
<stop offset="1" stop-color="#3DEFDB"/>
</linearGradient>
<linearGradient id="paint2_linear_502_388" x1="150.9" y1="-7.84415" x2="130.603" y2="59.0577" gradientUnits="userSpaceOnUse">
<stop stop-color="#5BFDC3"/>
<stop offset="1" stop-color="#3DEFDB"/>
</linearGradient>
<linearGradient id="paint3_linear_502_388" x1="150.9" y1="-7.84415" x2="130.603" y2="59.0577" gradientUnits="userSpaceOnUse">
<stop stop-color="#5BFDC3"/>
<stop offset="1" stop-color="#3DEFDB"/>
</linearGradient>
<linearGradient id="paint4_linear_502_388" x1="150.9" y1="-7.84415" x2="130.603" y2="59.0577" gradientUnits="userSpaceOnUse">
<stop stop-color="#5BFDC3"/>
<stop offset="1" stop-color="#3DEFDB"/>
</linearGradient>
<linearGradient id="paint5_linear_502_388" x1="150.9" y1="-7.84415" x2="130.603" y2="59.0577" gradientUnits="userSpaceOnUse">
<stop stop-color="#5BFDC3"/>
<stop offset="1" stop-color="#3DEFDB"/>
</linearGradient>
<linearGradient id="paint6_linear_502_388" x1="150.9" y1="-7.84415" x2="130.603" y2="59.0577" gradientUnits="userSpaceOnUse">
<stop stop-color="#5BFDC3"/>
<stop offset="1" stop-color="#3DEFDB"/>
</linearGradient>
<linearGradient id="paint7_linear_502_388" x1="150.9" y1="-7.84415" x2="130.603" y2="59.0577" gradientUnits="userSpaceOnUse">
<stop stop-color="#5BFDC3"/>
<stop offset="1" stop-color="#3DEFDB"/>
</linearGradient>
<linearGradient id="paint8_linear_502_388" x1="150.9" y1="-7.84415" x2="130.603" y2="59.0577" gradientUnits="userSpaceOnUse">
<stop stop-color="#5BFDC3"/>
<stop offset="1" stop-color="#3DEFDB"/>
</linearGradient>
</defs>
</svg>
