<svg width="122" height="15" viewBox="0 0 122 15" fill="none" xmlns="http://www.w3.org/2000/svg">
<path d="M11.0662 10.7341C11.0662 11.2864 10.9282 11.7619 10.652 12.1607C10.4833 12.4062 10.2149 12.713 9.8467 13.0811C9.49389 13.4493 9.2101 13.7024 8.99534 13.8405C8.50446 14.1319 7.99825 14.2776 7.47669 14.2776H4.34735C3.82579 14.2776 3.31958 14.1319 2.8287 13.8405C2.5986 13.7024 2.29947 13.4493 1.93131 13.0811C1.5785 12.6976 1.31772 12.3908 1.14898 12.1607C0.888202 11.7772 0.757812 11.3017 0.757812 10.7341V6.6844C0.757812 6.10148 0.888202 5.61827 1.14898 5.23478C1.31772 5.00468 1.5785 4.70555 1.93131 4.33739C2.29947 3.96923 2.5986 3.71613 2.8287 3.57807C3.31958 3.28661 3.82579 3.14088 4.34735 3.14088H7.47669C7.99825 3.14088 8.50446 3.28661 8.99534 3.57807C9.39418 3.82351 9.94641 4.37574 10.652 5.23478C10.9282 5.63361 11.0662 6.11682 11.0662 6.6844V10.7341ZM8.23601 10.7111V6.6844C8.0366 6.31624 7.76815 6.03245 7.43067 5.83303H4.41638C4.0789 6.07847 3.79511 6.36993 3.56501 6.70741V10.7111C3.87181 11.1253 4.14793 11.4091 4.39337 11.5625H7.40766C7.69912 11.3784 7.97524 11.0946 8.23601 10.7111Z" fill="white"/>
<path d="M23.1322 10.9412C23.1322 11.5241 22.9865 12.0304 22.695 12.4599C22.5876 12.6286 22.3882 12.8587 22.0968 13.1502C21.8206 13.4263 21.5982 13.6257 21.4295 13.7484C20.9233 14.1012 20.3633 14.2776 19.7497 14.2776H17.1036C16.4747 14.2776 15.8918 14.0859 15.3549 13.7024C14.818 13.3036 14.3885 12.851 14.0663 12.3448C13.8362 11.992 13.6445 11.6392 13.4911 11.2864L16.2062 10.5501C16.4517 11.1023 16.7738 11.4474 17.1726 11.5855H19.7267C19.7728 11.5855 19.8571 11.5241 19.9798 11.4014C20.1179 11.2787 20.233 11.1483 20.325 11.0102V9.0314C20.3097 9.0314 20.2866 9.04674 20.256 9.07742C20.2253 9.09276 20.2023 9.1081 20.1869 9.12344C19.7881 9.35354 19.489 9.46859 19.2896 9.46859H16.8275C16.1832 9.46859 15.6233 9.29985 15.1478 8.96237C14.979 8.83965 14.7489 8.64023 14.4575 8.36412C14.166 8.07266 13.9743 7.85023 13.8822 7.69683C13.5908 7.26731 13.445 6.76877 13.445 6.20119V3.57807C13.445 3.02583 13.5908 2.52728 13.8822 2.08243C14.1123 1.72961 14.5342 1.30776 15.1478 0.816885C15.6693 0.448727 16.2292 0.264648 16.8275 0.264648H19.7497C20.348 0.264648 20.9079 0.448727 21.4295 0.816885C21.6135 0.954944 21.8436 1.16203 22.1198 1.43815C22.4112 1.71427 22.603 1.92903 22.695 2.08243C22.9865 2.48126 23.1322 2.97214 23.1322 3.55506V10.9412ZM20.325 6.10915V3.55506C20.2483 3.417 20.1409 3.28661 20.0029 3.16389C19.8648 3.02583 19.7728 2.9568 19.7267 2.9568H16.8275C16.7815 2.9568 16.6894 3.01816 16.5514 3.14088C16.4287 3.24826 16.329 3.37098 16.2523 3.50904V6.17818C16.329 6.31624 16.4363 6.4543 16.5744 6.59236C16.7278 6.73042 16.8275 6.79945 16.8735 6.79945H19.4506C19.5733 6.79945 19.6654 6.78411 19.7267 6.75343C20.0029 6.52333 20.2023 6.30857 20.325 6.10915Z" fill="white"/>
<path d="M41.3298 14.1626H38.4995L34.0356 6.04012V14.1626H31.2284V0.356688H34.1047L38.5226 8.59421V0.356688H41.3298V14.1626Z" fill="white"/>
<path d="M53.2598 14.1626H44.1939V0.356688H53.2598V3.04884H47.0011V5.87905H53.0527V8.5712H47.0011V11.4704H53.2598V14.1626Z" fill="white"/>
<path d="M65.6535 3.04884H61.9489V14.1626H59.1187V3.04884H55.3911V0.356688H65.6535V3.04884Z" fill="white"/>
<path d="M83.2271 0.356688L80.0287 14.1626H77.0144L75.0126 6.08614C74.7978 6.97586 74.468 8.32577 74.0232 10.1359C73.5783 11.9306 73.2485 13.2729 73.0337 14.1626H70.0194L66.8671 0.356688H69.7663L71.5841 8.87033C71.8142 7.87324 72.1517 6.42362 72.5965 4.52147C73.0567 2.60398 73.3866 1.21572 73.586 0.356688H76.4392L78.441 8.87033C78.6251 8.04198 78.9166 6.66906 79.3154 4.75157C79.7143 2.81874 80.0211 1.35378 80.2358 0.356688H83.2271Z" fill="white"/>
<path d="M95.5187 10.7341C95.5187 11.3017 95.3883 11.7772 95.1275 12.1607C94.4832 12.9891 93.9233 13.549 93.4478 13.8405C92.9569 14.1319 92.4507 14.2776 91.9291 14.2776H88.4316C87.9101 14.2776 87.4039 14.1319 86.913 13.8405C86.6829 13.7024 86.3838 13.4493 86.0156 13.0811C85.6628 12.6976 85.402 12.3908 85.2333 12.1607C84.9725 11.7772 84.8421 11.3017 84.8421 10.7341V3.80817C84.8421 3.22525 84.9725 2.74204 85.2333 2.35855C85.402 2.12845 85.6628 1.82932 86.0156 1.46116C86.3838 1.093 86.6829 0.839895 86.913 0.701835C87.4039 0.410377 87.9101 0.264648 88.4316 0.264648H91.9291C92.4507 0.264648 92.9569 0.410377 93.4478 0.701835C93.8773 0.947274 94.4372 1.49951 95.1275 2.35855C95.3883 2.74204 95.5187 3.22525 95.5187 3.80817V10.7341ZM92.7115 10.7341V3.80817C92.4967 3.44001 92.2206 3.15622 91.8831 2.9568H88.5007C88.1632 3.20224 87.8794 3.4937 87.6493 3.83118V10.7341C87.9561 11.1483 88.2322 11.4321 88.4777 11.5855H91.8601C92.1516 11.3707 92.4353 11.0869 92.7115 10.7341Z" fill="white"/>
<path d="M108.382 5.62594C108.382 6.19352 108.237 6.69207 107.945 7.12158C107.853 7.27498 107.661 7.48974 107.37 7.76586C107.094 8.04198 106.871 8.2414 106.703 8.36412C106.58 8.45616 106.396 8.56354 106.15 8.68625L109.142 14.1626H106.012L103.274 8.89334H101.065V14.1626H98.2581V0.356688H104.977C105.652 0.356688 106.227 0.533097 106.703 0.885915C107.163 1.23873 107.577 1.66058 107.945 2.15146C108.237 2.55029 108.382 3.05651 108.382 3.67011V5.62594ZM105.575 5.64895V3.60108C105.422 3.35564 105.222 3.17156 104.977 3.04884H101.065V6.20119H104.977C105.023 6.20119 105.115 6.13983 105.253 6.01711C105.406 5.87905 105.514 5.75633 105.575 5.64895Z" fill="white"/>
<path d="M121.83 14.1626H118.425L114.306 8.45616H114.076V14.1626H111.269V0.356688H114.076V5.97109H114.306C114.337 5.97109 114.697 5.50323 115.387 4.56749C116.078 3.63176 116.76 2.69602 117.435 1.76029L118.448 0.356688H121.761L116.676 7.1676L121.83 14.1626Z" fill="white"/>
</svg>
