<svg width="36" height="35" viewBox="0 0 36 35" fill="none" xmlns="http://www.w3.org/2000/svg">
<rect x="0.311523" width="35" height="35" rx="2" fill="black"/>
<path d="M26.1288 11.3657C26.2754 11.2243 26.3923 11.0551 26.4728 10.868C26.5533 10.6809 26.5957 10.4797 26.5975 10.276C26.5994 10.0724 26.5607 9.87042 26.4837 9.68189C26.4066 9.49336 26.2928 9.32206 26.1489 9.17798C26.0049 9.03391 25.8337 8.91994 25.6453 8.84273C25.4568 8.76552 25.2549 8.72662 25.0512 8.7283C24.8476 8.72997 24.6463 8.77218 24.4591 8.85248C24.272 8.93277 24.1027 9.04953 23.9611 9.19596L17.8138 15.3412L11.6686 9.19596C11.5282 9.04527 11.3588 8.9244 11.1707 8.84057C10.9825 8.75674 10.7794 8.71167 10.5735 8.70803C10.3676 8.7044 10.163 8.74228 9.97203 8.81942C9.78105 8.89656 9.60757 9.01138 9.46192 9.15702C9.31628 9.30267 9.20146 9.47615 9.12432 9.66713C9.04718 9.85811 9.0093 10.0627 9.01293 10.2686C9.01657 10.4745 9.06164 10.6776 9.14547 10.8658C9.2293 11.0539 9.35017 11.2233 9.50086 11.3637L15.642 17.511L9.49677 23.6562C9.22584 23.947 9.07835 24.3315 9.08536 24.7289C9.09237 25.1262 9.25334 25.5054 9.53435 25.7864C9.81536 26.0674 10.1945 26.2283 10.5918 26.2353C10.9892 26.2424 11.3737 26.0949 11.6645 25.8239L17.8138 19.6787L23.9591 25.826C24.2498 26.0969 24.6344 26.2444 25.0317 26.2374C25.4291 26.2304 25.8082 26.0694 26.0892 25.7884C26.3702 25.5074 26.5312 25.1283 26.5382 24.7309C26.5452 24.3336 26.3977 23.949 26.1268 23.6583L19.9856 17.511L26.1288 11.3657Z" fill="#49F4D0"/>
</svg>
