<svg width="30" height="32" viewBox="0 0 30 32" fill="none" xmlns="http://www.w3.org/2000/svg">
<path d="M18.626 20.8232L27.5525 29.7498" stroke="url(#paint0_linear_502_1045)" stroke-width="4.34879" stroke-linecap="round"/>
<g filter="url(#filter0_bi_502_1045)">
<circle cx="14.1623" cy="14.5746" r="13.3898" fill="#009E7F" fill-opacity="0.7"/>
</g>
<g filter="url(#filter1_i_502_1045)">
<path fill-rule="evenodd" clip-rule="evenodd" d="M3.05273 14.5222C3.05273 15.9887 3.34157 17.4407 3.90274 18.7955C4.46391 20.1503 5.28643 21.3813 6.32334 22.4182C7.36025 23.4551 8.59124 24.2776 9.94602 24.8388C11.3008 25.4 12.7529 25.6888 14.2193 25.6888C15.6857 25.6888 17.1377 25.4 18.4925 24.8388C19.8473 24.2776 21.0783 23.4551 22.1152 22.4182C23.1521 21.3813 23.9746 20.1503 24.5358 18.7955C25.097 17.4407 25.3858 15.9887 25.3858 14.5222C25.3858 11.5607 24.2093 8.72045 22.1152 6.62632C20.0211 4.53218 17.1808 3.35571 14.2193 3.35571C11.2577 3.35571 8.41747 4.53218 6.32334 6.62632C4.22921 8.72045 3.05273 11.5607 3.05273 14.5222ZM21.689 20.9473C21.5288 21.1335 21.3612 21.3143 21.1863 21.4892C19.7841 22.8914 18.0028 23.8274 16.0832 24.1972C17.0448 23.2734 17.8052 21.6414 18.2775 19.5974C19.4461 19.8647 20.5092 20.2645 21.4025 20.7755C21.5004 20.8317 21.596 20.889 21.689 20.9473ZM22.4802 19.8921C23.3932 18.4875 23.9376 16.8658 24.0502 15.1791H18.8091C18.7815 16.2745 18.6853 17.3261 18.5282 18.3075C19.837 18.6033 21.0364 19.053 22.0554 19.6352C22.1995 19.7168 22.3412 19.8025 22.4802 19.8921ZM17.2295 18.07C17.3735 17.1714 17.4664 16.1991 17.4946 15.1791H10.9441C10.9742 16.2694 11.0783 17.3051 11.2397 18.2547C12.352 18.0219 13.5403 17.8985 14.7617 17.8985C15.6042 17.8985 16.4315 17.9571 17.2295 18.07ZM11.5054 19.5411C12.1258 22.0624 13.1699 23.7182 14.2193 23.7182C15.2935 23.7182 16.3622 21.9832 16.9765 19.361C16.2616 19.2632 15.5192 19.2122 14.7617 19.2122C13.6266 19.2122 12.5273 19.3271 11.5054 19.5411ZM10.2272 19.873C10.7029 21.788 11.4375 23.3154 12.3554 24.1972C10.4359 23.8274 8.6545 22.8915 7.25227 21.4892C7.22637 21.4633 7.20062 21.4373 7.17504 21.4111C7.22222 21.374 7.27036 21.3373 7.31949 21.301C8.10585 20.7116 9.09868 20.2267 10.2272 19.873ZM9.95631 18.582C9.77199 17.5231 9.6597 16.3773 9.62957 15.1791H4.38835C4.51518 17.0784 5.18938 18.8953 6.32102 20.4126C6.38959 20.3573 6.45969 20.3027 6.53126 20.2487C7.46816 19.5468 8.63842 18.9819 9.95631 18.582ZM4.38834 13.8654H9.62957C9.65957 12.6724 9.77103 11.5313 9.95394 10.4761C8.63702 10.0761 7.4676 9.51105 6.53126 8.80895C6.45795 8.75406 6.38563 8.69805 6.31436 8.64081C5.18672 10.1564 4.51491 11.9699 4.38834 13.8654ZM7.16753 7.64103C7.21712 7.68039 7.26776 7.71939 7.31949 7.75798C8.10507 8.34687 9.09672 8.83137 10.2239 9.18499C10.6994 7.26364 11.4353 5.73121 12.3554 4.84729C10.4358 5.21711 8.65449 6.15303 7.25227 7.55525C7.22383 7.58369 7.19559 7.61228 7.16753 7.64103ZM11.2373 10.8037C11.0773 11.7496 10.974 12.7805 10.9441 13.8654H17.4946C17.4666 12.8508 17.3745 11.8834 17.2317 10.9886C16.433 11.1018 15.605 11.1605 14.7617 11.1605C13.5394 11.1605 12.3503 11.0369 11.2373 10.8037ZM16.9797 9.6973C16.2638 9.79554 15.5203 9.84678 14.7617 9.84678C13.6254 9.84678 12.5248 9.73165 11.502 9.51716C12.122 6.98813 13.168 5.32625 14.2193 5.32625C15.2954 5.32625 16.3659 7.06734 16.9797 9.6973ZM18.5304 10.7508C18.6862 11.7283 18.7817 12.7752 18.8091 13.8654H24.0502C23.9378 12.1823 23.3955 10.5638 22.4859 9.16119C22.3468 9.25075 22.2032 9.33785 22.0554 9.42245C21.037 10.0051 19.8384 10.4549 18.5304 10.7508ZM21.6976 8.10721C21.6007 8.16823 21.5023 8.227 21.4025 8.28347C20.51 8.79333 19.448 9.19291 18.2806 9.46045C17.8085 7.4102 17.0469 5.77309 16.0833 4.84731C18.0028 5.21716 19.7841 6.15306 21.1863 7.55525C21.3643 7.73329 21.5348 7.91744 21.6976 8.10721Z" fill="white" fill-opacity="0.6"/>
</g>
<defs>
<filter id="filter0_bi_502_1045" x="-5.75072" y="-5.33837" width="39.8257" height="39.8259" filterUnits="userSpaceOnUse" color-interpolation-filters="sRGB">
<feFlood flood-opacity="0" result="BackgroundImageFix"/>
<feGaussianBlur in="BackgroundImageFix" stdDeviation="3.26159"/>
<feComposite in2="SourceAlpha" operator="in" result="effect1_backgroundBlur_502_1045"/>
<feBlend mode="normal" in="SourceGraphic" in2="effect1_backgroundBlur_502_1045" result="shape"/>
<feColorMatrix in="SourceAlpha" type="matrix" values="0 0 0 0 0 0 0 0 0 0 0 0 0 0 0 0 0 0 127 0" result="hardAlpha"/>
<feOffset dx="0.127221" dy="0.0636103"/>
<feGaussianBlur stdDeviation="0.318052"/>
<feComposite in2="hardAlpha" operator="arithmetic" k2="-1" k3="1"/>
<feColorMatrix type="matrix" values="0 0 0 0 1 0 0 0 0 1 0 0 0 0 1 0 0 0 0.6 0"/>
<feBlend mode="normal" in2="shape" result="effect2_innerShadow_502_1045"/>
</filter>
<filter id="filter1_i_502_1045" x="3.05273" y="3.35571" width="22.333" height="23.2872" filterUnits="userSpaceOnUse" color-interpolation-filters="sRGB">
<feFlood flood-opacity="0" result="BackgroundImageFix"/>
<feBlend mode="normal" in="SourceGraphic" in2="BackgroundImageFix" result="shape"/>
<feColorMatrix in="SourceAlpha" type="matrix" values="0 0 0 0 0 0 0 0 0 0 0 0 0 0 0 0 0 0 127 0" result="hardAlpha"/>
<feOffset dy="0.954155"/>
<feGaussianBlur stdDeviation="0.477078"/>
<feComposite in2="hardAlpha" operator="arithmetic" k2="-1" k3="1"/>
<feColorMatrix type="matrix" values="0 0 0 0 1 0 0 0 0 1 0 0 0 0 1 0 0 0 0.1 0"/>
<feBlend mode="normal" in2="shape" result="effect1_innerShadow_502_1045"/>
</filter>
<linearGradient id="paint0_linear_502_1045" x1="29.7245" y1="15.5129" x2="14.2252" y2="21.4258" gradientUnits="userSpaceOnUse">
<stop stop-color="#5BFDC3"/>
<stop offset="1" stop-color="#3DEFDB"/>
</linearGradient>
</defs>
</svg>
