<svg width="499" height="269" viewBox="0 0 499 269" fill="none" xmlns="http://www.w3.org/2000/svg">
<path d="M25.5977 1.13728C26.3343 0.408224 27.3232 4.0229e-05 28.3531 4.01404e-05L494.856 0C497.033 -1.87339e-07 498.798 1.78768 498.798 3.99289V199.901C498.798 200.64 498.595 201.366 498.212 201.995L492.107 212.032C491.724 212.661 491.521 213.386 491.521 214.126V256.964C491.521 259.169 489.756 260.957 487.579 260.957H411.512C410.727 260.957 409.959 261.194 409.308 261.639L399.573 268.286C398.922 268.73 398.155 268.968 397.369 268.968H3.94219C1.76498 268.968 0 267.18 0 264.975V28.1561C0 27.0812 0.427871 26.0517 1.18685 25.3004L25.5977 1.13728Z" fill="url(#paint0_linear_793_248)"/>
<defs>
<linearGradient id="paint0_linear_793_248" x1="620.161" y1="-160.006" x2="-41.0147" y2="307.762" gradientUnits="userSpaceOnUse">
<stop stop-color="#5BFDC3"/>
<stop offset="1" stop-color="#3DEFDB"/>
</linearGradient>
</defs>
</svg>
