<svg width="499" height="269" viewBox="0 0 499 269" fill="none" xmlns="http://www.w3.org/2000/svg">
<g filter="url(#filter0_b_793_250)">
<path d="M25.5977 1.13728C26.3343 0.408225 27.3232 4.0229e-05 28.3531 4.01404e-05L494.856 0C497.033 -1.87339e-07 498.798 1.78768 498.798 3.99289V199.901C498.798 200.64 498.595 201.366 498.212 201.995L492.107 212.032C491.724 212.661 491.521 213.386 491.521 214.126V256.964C491.521 259.169 489.756 260.957 487.579 260.957H411.512C410.727 260.957 409.959 261.194 409.308 261.639L399.573 268.286C398.922 268.73 398.155 268.968 397.369 268.968H3.94219C1.76498 268.968 0 267.18 0 264.975V28.1561C0 27.0812 0.427871 26.0517 1.18685 25.3004L25.5977 1.13728Z" fill="#304E43" fill-opacity="0.3"/>
<path d="M487.579 260.349H411.512C410.604 260.349 409.717 260.624 408.965 261.137L399.23 267.784C398.68 268.16 398.032 268.36 397.369 268.36H3.94219C2.10812 268.36 0.608085 266.852 0.608085 264.975V28.1561C0.608085 27.2423 0.97188 26.3688 1.61463 25.7326L26.0255 1.56945C26.649 0.952294 27.4846 0.608125 28.3531 0.608125L494.856 0.608085C496.69 0.608085 498.19 2.11616 498.19 3.99289V199.901C498.19 200.529 498.017 201.145 497.692 201.679L491.587 211.716C491.146 212.441 490.913 213.275 490.913 214.126V256.964C490.913 258.841 489.413 260.349 487.579 260.349Z" stroke="white" stroke-width="1.21617"/>
</g>
<defs>
<filter id="filter0_b_793_250" x="-37" y="-37" width="572.798" height="342.968" filterUnits="userSpaceOnUse" color-interpolation-filters="sRGB">
<feFlood flood-opacity="0" result="BackgroundImageFix"/>
<feGaussianBlur in="BackgroundImageFix" stdDeviation="18.5"/>
<feComposite in2="SourceAlpha" operator="in" result="effect1_backgroundBlur_793_250"/>
<feBlend mode="normal" in="SourceGraphic" in2="effect1_backgroundBlur_793_250" result="shape"/>
</filter>
</defs>
</svg>
